<svg height="512pt" viewBox="0 -108 512 512" width="512pt" xmlns="http://www.w3.org/2000/svg"><path d="m187.953125 72.726562h-6.160156c-2.199219 0-4.082031-1.792968-4.082031-4 0-2.207031 1.703124-4 3.921874-4h6.3125c2.214844 0 4 1.792969 4 4 0 2.207032-1.777343 4-3.992187 4zm0 0" fill="#d3374e"/><g fill="#e6e9ed"><path d="m91.871094 296.007812c-.167969 0-.34375-.007812-.511719-.035156-2.183594-.277344-3.734375-2.277344-3.472656-4.46875l25.097656-198.449218c.28125-2.199219 2.328125-3.753907 4.472656-3.472657 2.199219.28125 3.75 2.28125 3.472657 4.472657l-25.097657 198.449218c-.257812 2.03125-1.976562 3.503906-3.960937 3.503906zm0 0"/><path d="m117.097656 295.886719c-1.984375 0-3.707031-1.464844-3.96875-3.480469l-26.167968-198.328125c-.296876-2.183594 1.246093-4.199219 3.4375-4.496094 2.128906-.296875 4.203124 1.238281 4.503906 3.449219l26.167968 198.328125c.296876 2.183594-1.246093 4.199219-3.4375 4.496094-.191406.023437-.367187.03125-.535156.03125zm0 0"/><path d="m.785156 180.644531c0-.167969.015625-.335937.03125-.503906.28125-2.191406 2.28125-3.742187 4.472656-3.46875l198.453126 25.09375c2.203124.28125 3.753906 2.320313 3.472656 4.472656-.277344 2.191407-2.277344 3.742188-4.472656 3.472657l-198.460938-25.105469c-2.015625-.253907-3.496094-1.976563-3.496094-3.960938zm0 0"/><path d="m.902344 205.871094c0-1.976563 1.457031-3.695313 3.472656-3.960938l198.328125-26.175781c2.183594-.289063 4.199219 1.253906 4.503906 3.449219.296875 2.125-1.246093 4.191406-3.453125 4.496094l-198.328125 26.167968c-2.1875.285156-4.203125-1.257812-4.488281-3.449218-.035156-.183594-.035156-.351563-.035156-.527344zm0 0"/><path d="m185.574219 128.390625c.113281.121094.21875.238281.328125.375 1.363281 1.753906 1.035156 4.265625-.703125 5.617187l-158.054688 122.574219c-1.769531 1.359375-4.296875 1.007813-5.609375-.710937-1.359375-1.753906-1.046875-4.257813.703125-5.609375l158.066407-122.574219c1.597656-1.25 3.863281-1.082031 5.269531.328125zm0 0"/><path d="m106.359375 183.117188-66.4375 86.65625c-1.347656 1.777343-.96875 4.320312.734375 5.617187 1.75 1.34375 4.28125 1.007813 5.609375-.746094l70.183594-91.527343zm0 0"/><path d="m165.574219 275.535156c-1.183594 0-2.375-.527344-3.160157-1.546875l-122.574218-158.078125c-1.359375-1.753906-1.03125-4.257812.703125-5.617187 1.753906-1.34375 4.25-1.046875 5.625.714843l122.574219 158.070313c1.347656 1.753906 1.035156 4.257813-.71875 5.617187-.726563.558594-1.582032.839844-2.449219.839844zm0 0"/><path d="m183.34375 257.605469c-.855469 0-1.71875-.261719-2.441406-.832031l-158.742188-121.726563c-1.753906-1.34375-2.082031-3.847656-.734375-5.609375 1.34375-1.757812 3.855469-2.085938 5.605469-.734375l158.753906 121.734375c1.75 1.34375 2.078125 3.847656.734375 5.609375-.800781 1.023437-1.992187 1.558594-3.175781 1.558594zm0 0"/></g><path d="m259 179.285156c-.816406 0-1.625-.238281-2.328125-.742187-1.800781-1.28125-2.214844-3.785157-.9375-5.578125l93.050781-130.488282c1.542969-1.558593 4.34375-1.847656 5.902344-.292968 1.558594 1.558594 1.816406 3.804687.25 5.367187l-.082031.078125-92.609375 129.976563c-.773438 1.097656-2.015625 1.679687-3.246094 1.679687zm0 0" fill="#da4453"/><path d="m226.015625 200.742188c-1.65625 0-3.199219-1.039063-3.785156-2.695313l-58.0625-168.015625c-.71875-2.089844.390625-4.359375 2.488281-5.089844 2.0625-.703125 4.359375.382813 5.078125 2.480469l58.066406 168.015625c.71875 2.089844-.375 4.359375-2.472656 5.089844-.441406.144531-.871094.214844-1.3125.214844zm0 0" fill="#da4453"/><path d="m187.953125 88.726562c-1.800781 0-3.441406-1.222656-3.875-3.054687-.527344-2.144531.785156-4.304687 2.9375-4.832031l164.082031-40c2.40625-.609375 4.980469 1.351562 4.980469 3.878906 0 2.015625-1.46875 3.6875-3.40625 3.960938l-163.769531 39.917968c-.308594.089844-.636719.128906-.949219.128906zm0 0" fill="#da4453"/><path d="m339.953125 16.726562c-1.800781 0-3.425781-1.207031-3.875-3.03125-.527344-2.144531.769531-4.3125 2.90625-4.847656l32-8c2.113281-.53125 4.3125.765625 4.855469 2.910156.527344 2.144532-.769532 4.3125-2.917969 4.847657l-32 8c-.3125.082031-.640625.121093-.96875.121093zm0 0" fill="#da4453"/><path d="m215.886719 16.71875c.015625-.082031.066406-.152344.066406-.226562 0-.175782-.082031-.324219-.097656-.492188-.03125-.28125-.078125-.539062-.160157-.800781-.09375-.242188-.199218-.457031-.328124-.671875-.144532-.226563-.261719-.441406-.421876-.632813-.167968-.191406-.378906-.351562-.578124-.503906-.183594-.160156-.390626-.304687-.625-.425781-.230469-.125-.484376-.191406-.75-.261719-.160157-.050781-.296876-.152344-.488282-.167969l-74.03125.253906c-.046875.015626-.097656.042969-.144531.058594-.0625.03125-.128906.046875-.167969.070313-.183594.089843-.296875.238281-.457031.351562-.230469.167969-.488281.320313-.6875.527344-.167969.183594-.28125.402344-.40625.609375-.144531.222656-.296875.441406-.394531.6875-.09375.265625-.125.535156-.160156.816406-.03125.199219-.125.382813-.125.582032 0 .058593.015624.136718.015624.1875 0 .046874.015626.101562.015626.160156.160156 5.597656 4.453124 15.652344 19.96875 15.652344.574218 0 55.09375-1.589844 59.558593-14.335938.167969-.351562.34375-.695312.40625-1.101562.042969-.121094-.007812-.222657-.007812-.335938zm0 0" fill="#545c66"/><path d="m371.953125 32.726562c-2.199219 0-4-1.792968-4-4 0-2.207031 1.800781-4 4-4 4.34375 0 6.4375-3.273437 7.292969-5.222656 1.640625-3.722656 1.441406-8.273437-.46875-10.378906-1.144532-1.238281-3-1.453125-5.5625-.597656-2.078125.695312-4.34375-.441406-5.0625-2.527344-.6875-2.097656.441406-4.363281 2.527344-5.066406 7.65625-2.535156 12.0625.664062 14 2.816406 4.082031 4.472656 4.839843 12.28125 1.871093 18.992188-2.75 6.246093-8.207031 9.984374-14.597656 9.984374zm0 0" fill="#da4453"/><path d="m104.015625 188.742188h136v8h-136zm0 0" fill="#da4453"/><path d="m104.015625 296.75c-57.359375 0-104.015625-46.65625-104.015625-104.007812 0-57.351563 46.65625-104.015626 104.015625-104.015626 57.34375 0 104 46.664063 104 104.015626 0 57.351562-46.65625 104.007812-104 104.007812zm0-200.023438c-52.9375 0-96.015625 43.070313-96.015625 96.015626 0 52.9375 43.078125 96.007812 96.015625 96.007812s96-43.070312 96-96.007812c0-52.945313-43.0625-96.015626-96-96.015626zm0 0" fill="#656d78"/><path d="m103.953125 196.726562c-.855469 0-1.722656-.273437-2.457031-.839843-1.734375-1.351563-2.0625-3.863281-.703125-5.609375l83.511719-107.4375c.046874-.058594.558593-.671875.605468-.722656 1.457032-1.679688 3.96875-1.839844 5.640625-.421876 1.671875 1.445313 1.855469 3.964844.425781 5.640626l-.488281.558593-83.390625 107.28125c-.769531 1.023438-1.953125 1.550781-3.144531 1.550781zm0 0" fill="#da4453"/><path d="m124.015625 192.742188c0 11.046874-8.953125 20-20 20s-20-8.953126-20-20c0-11.046876 8.953125-20 20-20s20 8.953124 20 20zm0 0" fill="#656d78"/><path d="m395.839844 295.765625c-.167969 0-.328125-.007813-.503906-.03125-2.199219-.28125-3.75-2.28125-3.472657-4.472656l25.097657-198.449219c.277343-2.199219 2.3125-3.75 4.472656-3.46875 2.183594.277344 3.734375 2.277344 3.46875 4.46875l-25.09375 198.449219c-.265625 2.023437-1.976563 3.503906-3.96875 3.503906zm0 0" fill="#e6e9ed"/><path d="m421.0625 295.644531c-1.964844 0-3.6875-1.460937-3.949219-3.476562l-26.183593-198.328125c-.28125-2.1875 1.261718-4.203125 3.453124-4.496094 2.128907-.296875 4.183594 1.238281 4.488282 3.445312l26.183594 198.328126c.28125 2.183593-1.261719 4.199218-3.453126 4.496093-.175781.023438-.355468.03125-.539062.03125zm0 0" fill="#e6e9ed"/><path d="m304.769531 180.40625c0-.167969 0-.335938.03125-.503906.277344-2.191406 2.277344-3.746094 4.472657-3.472656l198.4375 25.097656c2.199218.277344 3.753906 2.320312 3.472656 4.472656-.28125 2.191406-2.28125 3.742188-4.472656 3.46875l-198.4375-25.09375c-2.042969-.265625-3.503907-1.984375-3.503907-3.96875zm0 0" fill="#e6e9ed"/><path d="m304.871094 205.621094c0-1.976563 1.472656-3.695313 3.488281-3.960938l198.328125-26.175781c2.183594-.285156 4.199219 1.257813 4.488281 3.449219.296875 2.128906-1.230469 4.191406-3.441406 4.496094l-198.328125 26.175781c-2.183594.289062-4.199219-1.253907-4.503906-3.449219-.015625-.183594-.03125-.351562-.03125-.535156zm0 0" fill="#e6e9ed"/><path d="m489.542969 128.148438c.128906.121093.234375.242187.34375.378906 1.34375 1.75 1.035156 4.261718-.71875 5.613281l-158.054688 122.578125c-1.753906 1.359375-4.28125 1.007812-5.609375-.710938-1.359375-1.753906-1.03125-4.257812.703125-5.609374l158.082031-122.578126c1.597657-1.253906 3.855469-1.078124 5.253907.328126zm0 0" fill="#e6e9ed"/><path d="m471.640625 110.398438c1.390625 1.390624 1.574219 3.640624.34375 5.253906l-121.738281 158.753906c-1.34375 1.75-3.855469 2.085938-5.605469.742188-1.71875-1.292969-2.097656-3.839844-.753906-5.613282l121.738281-158.753906c1.34375-1.75 3.855469-2.078125 5.605469-.742188.144531.109376.273437.222657.410156.359376zm0 0" fill="#e6e9ed"/><path d="m469.558594 275.285156c-1.183594 0-2.375-.527344-3.167969-1.542968l-122.574219-158.070313c-1.34375-1.753906-1.03125-4.257813.71875-5.617187 1.738282-1.34375 4.25-1.046876 5.609375.710937l122.574219 158.074219c1.359375 1.75 1.035156 4.253906-.703125 5.613281-.734375.5625-1.589844.832031-2.457031.832031zm0 0" fill="#e6e9ed"/><path d="m487.3125 257.367188c-.839844 0-1.703125-.265626-2.441406-.832032l-158.742188-121.730468c-1.753906-1.34375-2.082031-3.847657-.738281-5.605469 1.363281-1.761719 3.855469-2.089844 5.609375-.738281l158.753906 121.738281c1.75 1.34375 2.078125 3.847656.734375 5.605469-.785156 1.027343-1.976562 1.5625-3.175781 1.5625zm0 0" fill="#e6e9ed"/><path d="m407.984375 296.511719c-57.34375 0-104-46.65625-104-104.007813 0-57.355468 46.65625-104.019531 104-104.019531 57.359375 0 104.015625 46.664063 104.015625 104.019531 0 57.351563-46.65625 104.007813-104.015625 104.007813zm0-200.027344c-52.9375 0-96 43.074219-96 96.019531 0 52.933594 43.0625 96.007813 96 96.007813s96.015625-43.074219 96.015625-96.007813c0-52.953125-43.078125-96.019531-96.015625-96.019531zm0 0" fill="#656d78"/><path d="m240.015625 224.757812c-17.640625 0-32-14.359374-32-32 0-17.640624 14.359375-32 32-32 2.199219 0 4.390625.175782 6.503906.640626 14.542969 3.023437 25.503907 15.902343 25.503907 31.359374 0 9.425782-4.113282 17.921876-10.6875 23.769532-5.582032 5.117187-13.089844 8.230468-21.320313 8.230468zm0 0" fill="#ed5565"/><path d="m240.015625 179.046875c-7.574219 0-13.703125 6.128906-13.703125 13.710937 0 7.585938 6.128906 13.710938 13.703125 13.710938 3.578125 0 6.769531-1.375 9.144531-3.558594 2.839844-2.472656 4.574219-6.128906 4.574219-10.152344 0-7.582031-6.125-13.710937-13.71875-13.710937zm0 0" fill="#656d78"/><path d="m275.9375 236.757812c-1.097656 0-2.167969-.449218-2.96875-1.328124l-35.921875-39.992188c-1.488281-1.640625-1.34375-4.167969.296875-5.648438 1.640625-1.496093 4.167969-1.359374 5.640625.289063l35.9375 40.007813c1.46875 1.640624 1.34375 4.167968-.3125 5.648437-.753906.6875-1.722656 1.023437-2.671875 1.023437zm0 0" fill="#ccd1d9"/><path d="m287.9375 236.757812h-28c-2.203125 0-4-1.792968-4-4 0-2.207031 1.796875-4 4-4h28c2.214844 0 4 1.792969 4 4 0 2.207032-1.777344 4-4 4zm0 0" fill="#e6e9ed"/><path d="m407.953125 196.726562c-1.609375 0-3.128906-.984374-3.738281-2.585937l-55.917969-147.917969c-.066406-.152344-.113281-.296875-.144531-.457031l-11.9375-31.625c-.78125-2.070313.265625-4.375 2.328125-5.160156 2.097656-.757813 4.378906.257812 5.160156 2.328125l12.082031 32c.046875.152344.09375.296875.144532.449218l55.78125 147.550782c.785156 2.066406-.261719 4.378906-2.328126 5.160156-.480468.167969-.957031.257812-1.429687.257812zm0 0" fill="#da4453"/><path d="m427.984375 192.503906c0 11.042969-8.953125 20-20 20s-20-8.957031-20-20c0-11.046875 8.953125-20 20-20s20 8.953125 20 20zm0 0" fill="#656d78"/></svg>